<svg xmlns="http://www.w3.org/2000/svg" viewBox="0 0 64 64" role="img" aria-label="TenJ Lab logo">
<defs><linearGradient id="tenjNavy" x1="0" y1="0" x2="0" y2="1"><stop offset="0" stop-color="#1d4e82"/><stop offset="1" stop-color="#0c2c4e"/></linearGradient></defs>
<circle cx="32" cy="32" r="30" fill="url(#tenjNavy)"/>
<circle cx="32" cy="32" r="28.5" fill="none" stroke="#0B5BC0" stroke-width="4.2"/>
<g fill="#F2C100"><polygon points="32.00,8.30 32.79,10.41 35.04,10.51 33.28,11.92 33.88,14.09 32.00,12.84 30.12,14.09 30.72,11.92 28.96,10.51 31.21,10.41"/><polygon points="14.25,39.05 15.04,41.16 17.29,41.26 15.52,42.67 16.13,44.84 14.25,43.59 12.37,44.84 12.97,42.67 11.20,41.26 13.46,41.16"/><polygon points="49.75,39.05 50.54,41.16 52.80,41.26 51.03,42.67 51.63,44.84 49.75,43.59 47.87,44.84 48.48,42.67 46.71,41.26 48.96,41.16"/></g>
<g fill="#ffffff"><g transform="rotate(-90 32 32)"><ellipse cx="32" cy="23.5" rx="5.0" ry="8.0"/></g><g transform="rotate(-18 32 32)"><ellipse cx="32" cy="23.5" rx="5.0" ry="8.0"/></g><g transform="rotate(54 32 32)"><ellipse cx="32" cy="23.5" rx="5.0" ry="8.0"/></g><g transform="rotate(126 32 32)"><ellipse cx="32" cy="23.5" rx="5.0" ry="8.0"/></g><g transform="rotate(198 32 32)"><ellipse cx="32" cy="23.5" rx="5.0" ry="8.0"/></g></g><circle cx="32" cy="32" r="4.5" fill="#F2C100"/>
</svg>
